# Blender v3.3.1 OBJ File: 'kabutack.blend'
# www.blender.org
mtllib eyes.mtl
o eyes_Cube
v 0.321297 1.728882 0.403079
v 0.323299 1.705335 0.403398
v 0.321924 1.734893 0.438870
v 0.323925 1.711346 0.439189
v 0.096284 1.713955 0.410070
v 0.111284 1.680909 0.416901
v 0.097121 1.721984 0.457881
v 0.135733 1.730641 0.448841
v 0.106694 1.687903 0.464555
v 0.134936 1.722997 0.403321
v 0.205018 1.608634 0.466799
v 0.085624 1.549458 0.460567
v 0.095077 1.530158 0.462727
v 0.083183 1.551416 0.488732
v 0.092637 1.532116 0.490893
v 0.202577 1.610591 0.494965
v 0.186194 1.578486 0.495777
v 0.188635 1.576528 0.467611
v 0.262718 1.490827 0.479987
v 0.260277 1.492785 0.508153
v 0.236882 1.478022 0.478638
v 0.234441 1.479980 0.506804
v -0.340264 1.728882 0.403079
v -0.342265 1.705335 0.403398
v -0.340891 1.734893 0.438870
v -0.342892 1.711346 0.439189
v -0.115251 1.713955 0.410070
v -0.130251 1.680909 0.416901
v -0.116088 1.721984 0.457881
v -0.154699 1.730641 0.448841
v -0.125660 1.687903 0.464555
v -0.153902 1.722997 0.403321
v -0.223984 1.608634 0.466799
v -0.104591 1.549458 0.460567
v -0.114044 1.530158 0.462727
v -0.102150 1.551416 0.488732
v -0.111603 1.532116 0.490893
v -0.221544 1.610591 0.494965
v -0.205161 1.578486 0.495777
v -0.207601 1.576528 0.467611
v -0.279244 1.492785 0.508153
v -0.268766 1.484425 0.479313
v -0.253407 1.479980 0.506804
vt 1.070428 0.140546
vt 1.032648 0.386568
vt 1.315154 0.414287
vt 0.658501 0.416016
vt 0.470909 0.390448
vt 0.381483 0.433370
vt 0.400295 0.561048
vt 0.115155 0.590922
vt 0.148559 0.840444
vt 0.536860 0.868781
vt 0.960567 0.981780
vt 1.183221 0.968930
vt 0.266052 0.518375
vt 0.270517 0.775404
vt 0.269191 0.751978
vt 0.703246 0.589808
vt 0.717682 0.497171
vt 0.712289 0.754714
vt 0.283373 0.541289
vt 0.287808 0.796348
vt 0.275904 0.810053
vt 0.458306 0.829851
vt 0.545276 0.872442
vt 0.724215 0.844358
vt 1.114862 0.289232
vt 0.888885 0.276935
vt 0.464922 0.385933
vt 1.979684 0.237889
vt 1.133326 0.229767
vt 0.895199 0.247184
vt 2.090942 0.269877
vt 2.404016 0.270282
vt 2.334215 0.552479
vt -0.025649 0.775635
vt -0.173669 0.867962
vt -0.159676 1.132197
vt 0.625000 -0.007933
vt 0.625000 0.274263
vt 0.625000 0.276332
vt 0.920336 0.636919
vt 0.906343 0.901155
vt 1.054362 0.993480
vt 0.940647 0.980897
vt 1.178774 0.998315
vt 2.025130 0.990193
vt 0.657424 0.021270
vt 0.649160 0.285505
vt 0.673299 0.311001
vt 0.625000 0.268812
vt 0.625000 0.267487
vt 0.625000 0.319983
vt 0.625000 0.968244
vt 0.625000 0.915748
vt 0.625000 0.917073
vt 0.839947 0.713386
vt 0.839947 0.711317
vt 0.839947 0.429120
vt 1.352934 0.168264
vt 0.433698 0.810569
vt 0.514247 0.872472
vt 1.100286 1.012637
vt 0.712541 0.846731
vt 0.266052 0.502083
vt 0.269191 0.725284
vt 0.264502 0.467076
vt 0.703246 0.556544
vt 0.712289 0.769309
vt 0.699005 0.812663
vt 0.283373 0.574282
vt 0.275904 0.783633
vt 0.270264 0.527085
vt 1.046052 0.246936
vt 0.459788 0.385917
vt 0.657271 0.411766
vt 1.741542 0.255308
vt 2.021136 0.552071
vt -0.011656 1.039871
vt 0.625000 -0.005864
vt 1.068355 0.729245
vt 1.786990 0.972773
vt 0.681562 0.046765
vt 0.625000 0.321307
vt 0.625000 0.969569
vt 0.839947 0.431189
vt 1.070428 0.140546
vt 1.315154 0.414287
vt 1.032648 0.386568
vt 0.658501 0.416016
vt 0.381483 0.433370
vt 0.470909 0.390448
vt 0.400295 0.561048
vt 0.148559 0.840444
vt 0.115155 0.590922
vt 0.536860 0.868781
vt 1.183221 0.968930
vt 0.960567 0.981780
vt 0.266052 0.518375
vt 0.269191 0.751978
vt 0.270517 0.775404
vt 0.703246 0.589808
vt 0.712289 0.754714
vt 0.717682 0.497171
vt 0.283373 0.541289
vt 0.275904 0.810053
vt 0.287808 0.796348
vt 0.458306 0.829851
vt 0.724215 0.844358
vt 0.545276 0.872442
vt 1.114862 0.289232
vt 0.464922 0.385933
vt 0.888885 0.276935
vt 1.979684 0.237889
vt 0.895199 0.247184
vt 1.133326 0.229767
vt 2.090942 0.269877
vt 2.334215 0.552479
vt 2.404016 0.270282
vt -0.025649 0.775635
vt -0.159676 1.132197
vt -0.173669 0.867962
vt 0.625000 -0.007933
vt 0.625000 0.276332
vt 0.625000 0.274263
vt 0.920336 0.636919
vt 1.054362 0.993480
vt 0.906343 0.901155
vt 0.940647 0.980897
vt 2.025130 0.990193
vt 1.178774 0.998315
vt 0.625000 0.268812
vt 0.625000 0.319983
vt 0.625000 0.267487
vt 0.839947 0.713386
vt 0.839947 0.429120
vt 0.839947 0.711317
vt 1.352934 0.168264
vt 0.433698 0.810569
vt 0.514247 0.872472
vt 0.712541 0.846731
vt 1.100286 1.012637
vt 0.266052 0.502083
vt 0.264502 0.467076
vt 0.269191 0.725284
vt 0.703246 0.556544
vt 0.699005 0.812663
vt 0.712289 0.769309
vt 0.283373 0.574282
vt 0.270264 0.527085
vt 0.275904 0.783633
vt 1.046052 0.246936
vt 0.657271 0.411766
vt 0.459788 0.385917
vt 1.741542 0.255308
vt 2.021136 0.552071
vt -0.011656 1.039871
vt 0.625000 -0.005864
vt 1.068355 0.729245
vt 1.786990 0.972773
vt 0.657424 0.021269
vt 0.681562 0.046765
vt 0.661230 0.298253
vt 0.625000 0.321307
vt 0.625000 0.968244
vt 0.625000 0.969569
vt 0.625000 0.916411
vt 0.839947 0.431189
vn 0.9959 0.0842 -0.0316
vn 0.1712 0.2354 0.9567
vn -0.9640 -0.2589 0.0604
vn -0.0009 -0.0136 -0.9999
vn -0.2507 0.9554 -0.1561
vn 0.1239 -0.9800 0.1558
vn -0.0313 0.9858 -0.1650
vn -0.1098 -0.2488 -0.9623
vn 0.0531 0.0180 0.9984
vn -0.0861 0.0691 0.9939
vn -0.8950 -0.4436 -0.0467
vn -0.4377 0.8936 -0.1000
vn 0.8950 0.4436 0.0467
vn 0.4377 -0.8936 0.1000
vn 0.0861 -0.0691 -0.9939
vn -0.9082 -0.4177 -0.0262
vn -0.0271 -0.2931 -0.9557
vn 0.1231 -0.9790 0.1623
vn 0.0792 0.2962 0.9518
vn -0.9959 0.0842 -0.0316
vn -0.1712 0.2354 0.9567
vn 0.9640 -0.2589 0.0604
vn 0.0009 -0.0136 -0.9999
vn 0.2507 0.9554 -0.1561
vn -0.1239 -0.9800 0.1558
vn 0.0313 0.9858 -0.1650
vn 0.1098 -0.2488 -0.9623
vn -0.0531 0.0180 0.9984
vn 0.0861 0.0691 0.9939
vn 0.8950 -0.4436 -0.0467
vn 0.4377 0.8936 -0.1000
vn -0.8950 0.4436 0.0467
vn -0.4377 -0.8936 0.1000
vn -0.0861 -0.0691 -0.9939
vn 0.7026 -0.5273 -0.4778
vn 0.9082 -0.4177 -0.0262
vn 0.0271 -0.2931 -0.9557
vn -0.1231 -0.9790 0.1623
vn -0.0792 0.2962 0.9518
vn -0.8752 0.2754 -0.3978
usemtl None
s off
f 1/1/1 3/2/1 4/3/1
f 9/4/2 8/5/2 7/6/2
f 9/7/3 7/8/3 5/9/3
f 10/10/4 1/11/4 2/12/4
f 8/13/5 10/14/5 5/15/5
f 4/16/6 9/17/6 6/18/6
f 3/19/7 1/20/7 10/21/7
f 5/22/8 10/23/8 6/24/8
f 4/25/9 3/26/9 8/27/9
f 16/28/10 14/29/10 15/30/10
f 15/31/11 14/32/11 12/33/11
f 14/34/12 16/35/12 11/36/12
f 11/37/13 16/38/13 20/39/13
f 15/40/14 13/41/14 18/42/14
f 13/43/15 12/44/15 11/45/15
f 22/46/14 21/47/14 19/48/14
f 16/49/10 17/50/10 22/51/10
f 11/52/15 19/53/15 21/54/15
f 18/55/11 21/56/11 22/57/11
f 1/1/1 4/3/1 2/58/1
f 9/7/16 5/9/16 6/59/16
f 10/60/17 2/61/17 6/62/17
f 8/63/5 5/64/5 7/65/5
f 4/66/18 6/67/18 2/68/18
f 3/69/7 10/70/7 8/71/7
f 4/72/19 8/73/19 9/74/19
f 16/28/10 15/30/10 17/75/10
f 15/31/11 12/33/11 13/76/11
f 14/34/12 11/36/12 12/77/12
f 11/37/13 20/39/13 19/78/13
f 15/40/14 18/42/14 17/79/14
f 13/43/15 11/45/15 18/80/15
f 22/46/14 19/48/14 20/81/14
f 16/49/10 22/51/10 20/82/10
f 11/52/15 21/54/15 18/83/15
f 18/55/11 22/57/11 17/84/11
f 23/85/20 26/86/20 25/87/20
f 31/88/21 29/89/21 30/90/21
f 31/91/22 27/92/22 29/93/22
f 32/94/23 24/95/23 23/96/23
f 30/97/24 27/98/24 32/99/24
f 26/100/25 28/101/25 31/102/25
f 25/103/26 32/104/26 23/105/26
f 27/106/27 28/107/27 32/108/27
f 26/109/28 30/110/28 25/111/28
f 38/112/29 37/113/29 36/114/29
f 37/115/30 34/116/30 36/117/30
f 36/118/31 33/119/31 38/120/31
f 33/121/32 41/122/32 38/123/32
f 37/124/33 40/125/33 35/126/33
f 35/127/34 33/128/34 34/129/34
f 38/130/29 43/131/29 39/132/29
f 40/133/35 43/134/35 42/135/35
f 23/85/20 24/136/20 26/86/20
f 31/91/36 28/137/36 27/92/36
f 32/138/37 28/139/37 24/140/37
f 30/141/24 29/142/24 27/143/24
f 26/144/38 24/145/38 28/146/38
f 25/147/26 30/148/26 32/149/26
f 26/150/39 31/151/39 30/152/39
f 38/112/29 39/153/29 37/113/29
f 37/115/30 35/154/30 34/116/30
f 36/118/31 34/155/31 33/119/31
f 33/121/40 42/156/40 41/122/40
f 37/124/33 39/157/33 40/125/33
f 35/127/34 40/158/34 33/128/34
f 43/159/33 41/160/33 42/161/33
f 38/130/29 41/162/29 43/131/29
f 33/163/34 40/164/34 42/165/34
f 40/133/30 39/166/30 43/134/30
