# Blender v3.3.1 OBJ File: 'kabutack.blend'
# www.blender.org
mtllib fences.mtl
o fences
v 5.228539 -0.777555 -4.222445
v 5.228539 0.777555 -4.222445
v 5.228539 -0.777555 -5.777555
v 5.228539 0.777555 -5.777555
v -5.228539 -0.777555 -4.222445
v -5.228539 0.777555 -4.222445
v -5.228539 -0.777555 -5.777555
v -5.228539 0.777555 -5.777555
v 3.717189 -0.777555 1.817866
v 3.717189 0.777555 1.817866
v 5.272297 -0.777555 1.820007
v 5.272297 0.777555 1.820007
v 3.727701 -0.777555 -5.820007
v 3.727701 0.777555 -5.820007
v 5.282810 -0.777555 -5.817867
v 5.282810 0.777555 -5.817867
v 5.228539 -0.777555 2.977555
v 5.228539 0.777555 2.977555
v 5.228539 -0.777555 1.822444
v 5.228539 0.777555 1.822444
v -5.228539 -0.777555 2.977555
v -5.228539 0.777555 2.977555
v -5.228539 -0.777555 1.822444
v -5.228539 0.777555 1.822444
v -5.222810 -0.777555 1.817866
v -5.222810 0.777555 1.817866
v -3.667701 -0.777555 1.820007
v -3.667701 0.777555 1.820007
v -5.212298 -0.777555 -5.820007
v -5.212298 0.777555 -5.820007
v -3.657189 -0.777555 -5.817867
v -3.657189 0.777555 -5.817867
vt 0.376941 0.000051
vt 0.376115 0.249818
vt 0.625882 0.250644
vt 0.377476 0.249290
vt 0.375585 0.499051
vt 0.625346 0.500942
vt 0.374891 0.500225
vt 0.375341 0.749993
vt 0.625109 0.749543
vt 0.002863 0.749095
vt -0.002540 0.998860
vt 0.997137 1.000210
vt 0.375116 0.500000
vt 0.125348 0.500000
vt 0.125348 0.749768
vt 0.003105 0.497758
vt 1.000929 0.500000
vt 1.000929 0.749768
vt 0.626708 0.000877
vt 0.627237 0.251181
vt 0.624659 0.499775
vt 1.002540 0.750445
vt 0.375116 0.749768
vt 0.003105 0.747526
vt 0.376941 0.000051
vt 0.376115 0.249818
vt 0.625882 0.250644
vt 0.377476 0.249290
vt 0.375585 0.499051
vt 0.625346 0.500942
vt 0.374891 0.500225
vt 0.375341 0.749993
vt 0.625109 0.749543
vt 0.002863 0.749095
vt -0.002540 0.998860
vt 0.997137 1.000210
vt 0.375116 0.500000
vt 0.125348 0.500000
vt 0.125348 0.749768
vt 1.000929 0.500000
vt 1.000929 0.749768
vt 0.003105 0.747526
vt 0.626708 0.000877
vt 0.627237 0.251181
vt 0.624659 0.499775
vt 1.002540 0.750445
vt 0.375116 0.749768
vt 0.003105 0.497758
vt 0.421006 0.002506
vt 0.420180 0.252273
vt 0.605703 0.252886
vt 0.377476 0.249290
vt 0.375585 0.499051
vt 0.625346 0.500942
vt 0.374891 0.500225
vt 0.375341 0.749993
vt 0.560864 0.749659
vt 0.002863 0.749095
vt -0.002540 0.998860
vt 0.997137 1.000210
vt 0.375116 0.500000
vt 0.125348 0.500000
vt 0.125348 0.685524
vt 0.003105 0.497758
vt 1.000929 0.500000
vt 1.000929 0.685524
vt 0.606529 0.003120
vt 0.627237 0.251181
vt 0.560415 0.499891
vt 1.002540 0.750445
vt 0.375116 0.685524
vt 0.003105 0.683282
vt 0.376941 0.000051
vt 0.376115 0.249818
vt 0.625882 0.250644
vt 0.377476 0.249290
vt 0.375585 0.499051
vt 0.625346 0.500942
vt 0.374891 0.500225
vt 0.375341 0.749993
vt 0.625109 0.749543
vt 0.002863 0.749095
vt -0.002540 0.998860
vt 0.997137 1.000210
vt 0.375116 0.500000
vt 0.125348 0.500000
vt 0.125348 0.749768
vt 1.000929 0.500000
vt 1.000929 0.749768
vt 0.003105 0.747526
vt 0.626708 0.000877
vt 0.627237 0.251181
vt 0.624659 0.499775
vt 1.002540 0.750445
vt 0.375116 0.749768
vt 0.003105 0.497758
vn 1.0000 0.0000 0.0000
vn 0.0000 0.0000 -1.0000
vn -1.0000 0.0000 0.0000
vn 0.0000 0.0000 1.0000
vn 0.0000 -1.0000 0.0000
vn 0.0000 1.0000 0.0000
vn -0.0014 0.0000 1.0000
vn 1.0000 0.0000 0.0014
vn 0.0014 0.0000 -1.0000
vn -1.0000 0.0000 -0.0014
usemtl wood.006
s off
f 2/1/1 1/2/1 3/3/1
f 4/4/2 3/5/2 7/6/2
f 8/7/3 7/8/3 5/9/3
f 6/10/4 5/11/4 1/12/4
f 7/13/5 3/14/5 1/15/5
f 4/16/6 8/17/6 6/18/6
f 2/1/1 3/3/1 4/19/1
f 4/4/2 7/6/2 8/20/2
f 8/7/3 5/9/3 6/21/3
f 6/10/4 1/12/4 2/22/4
f 7/13/5 1/15/5 5/23/5
f 4/16/6 6/18/6 2/24/6
usemtl wood
f 10/25/7 9/26/7 11/27/7
f 12/28/8 11/29/8 15/30/8
f 16/31/9 15/32/9 13/33/9
f 14/34/10 13/35/10 9/36/10
f 15/37/5 11/38/5 9/39/5
f 16/40/6 14/41/6 10/42/6
f 10/25/7 11/27/7 12/43/7
f 12/28/8 15/30/8 16/44/8
f 16/31/9 13/33/9 14/45/9
f 14/34/10 9/36/10 10/46/10
f 15/37/5 9/39/5 13/47/5
f 16/40/6 10/42/6 12/48/6
usemtl wood.005
f 18/49/1 17/50/1 19/51/1
f 20/52/2 19/53/2 23/54/2
f 24/55/3 23/56/3 21/57/3
f 22/58/4 21/59/4 17/60/4
f 23/61/5 19/62/5 17/63/5
f 20/64/6 24/65/6 22/66/6
f 18/49/1 19/51/1 20/67/1
f 20/52/2 23/54/2 24/68/2
f 24/55/3 21/57/3 22/69/3
f 22/58/4 17/60/4 18/70/4
f 23/61/5 17/63/5 21/71/5
f 20/64/6 22/66/6 18/72/6
usemtl wood.007
f 26/73/7 25/74/7 27/75/7
f 28/76/8 27/77/8 31/78/8
f 32/79/9 31/80/9 29/81/9
f 30/82/10 29/83/10 25/84/10
f 31/85/5 27/86/5 25/87/5
f 32/88/6 30/89/6 26/90/6
f 26/73/7 27/75/7 28/91/7
f 28/76/8 31/78/8 32/92/8
f 32/79/9 29/81/9 30/93/9
f 30/82/10 25/84/10 26/94/10
f 31/85/5 25/87/5 29/95/5
f 32/88/6 26/90/6 28/96/6
