# Blender v3.3.1 OBJ File: 'kabutack.blend'
# www.blender.org
mtllib foot.mtl
o foot
v 0.202615 0.085033 0.351394
v 0.202615 -0.278290 0.351394
v 0.202615 -0.058639 0.838387
v 0.202615 -0.278290 0.838387
v -0.226994 0.085033 0.351394
v -0.226994 -0.278290 0.351394
v -0.226994 -0.058639 0.838387
v -0.226994 -0.278290 0.838387
v 0.202615 0.085033 -0.216040
v 0.202615 -0.278290 -0.216040
v -0.226994 0.085033 -0.216040
v -0.226994 -0.278290 -0.216040
vt 0.625000 0.000000
vt 0.375000 0.250000
vt 0.375000 0.000000
vt 0.625000 0.250000
vt 0.375000 0.250000
vt 0.375000 0.500000
vt 0.625000 0.750000
vt 0.375000 0.750000
vt 0.375000 1.000000
vt 0.125000 0.750000
vt 0.125000 0.500000
vt 0.875000 0.500000
vt 0.625000 0.500000
vt 0.625000 0.250000
vt 0.375000 0.500000
vt 0.875000 0.500000
vt 0.625000 0.500000
vt 0.625000 1.000000
vt 0.875000 0.750000
vt 0.125000 0.500000
vn -1.0000 0.0000 0.0000
vn 1.0000 0.0000 0.0000
vn 0.0000 0.0000 1.0000
vn 0.0000 -1.0000 0.0000
vn 0.0000 0.9591 0.2830
vn 0.0000 -0.0000 -1.0000
vn 0.0000 1.0000 0.0000
usemtl None
s off
f 7/1/1 6/2/1 8/3/1
f 5/4/1 12/5/1 6/2/1
f 2/6/2 3/7/2 4/8/2
f 3/7/3 8/9/3 4/8/3
f 2/6/4 8/10/4 6/11/4
f 5/12/5 3/7/5 1/13/5
f 11/14/6 10/15/6 12/5/6
f 1/13/7 11/16/7 5/12/7
f 6/11/4 10/15/4 2/6/4
f 2/6/2 9/17/2 1/13/2
f 7/1/1 5/4/1 6/2/1
f 5/4/1 11/14/1 12/5/1
f 2/6/2 1/13/2 3/7/2
f 3/7/3 7/18/3 8/9/3
f 2/6/4 4/8/4 8/10/4
f 5/12/5 7/19/5 3/7/5
f 11/14/6 9/17/6 10/15/6
f 1/13/7 9/17/7 11/16/7
f 6/11/4 12/20/4 10/15/4
f 2/6/2 10/15/2 9/17/2
