# Blender v3.3.1 OBJ File: 'kabutack.blend'
# www.blender.org
mtllib mtfuji.mtl
o Cube_Cube.001
v -15.721122 11.827383 -10.917527
v -15.721122 3.017141 -10.917527
v -13.080392 11.827383 -11.082473
v -13.080392 3.017141 -11.082473
v 5.623076 11.827383 -10.917527
v 5.623076 3.017141 -10.917527
v 2.982347 11.827383 -11.082473
v 2.982347 3.017141 -11.082473
vt 0.625000 0.000000
vt 0.375000 0.000000
vt 0.375000 0.250000
vt 0.625000 0.250000
vt 0.375000 0.500000
vt 0.625000 0.500000
vt 0.375000 0.750000
vt 0.005432 -0.006389
vt 0.001357 0.999626
vt 0.997035 0.993580
vt 0.125000 0.500000
vt 0.125000 0.750000
vt 0.875000 0.500000
vt 0.625000 0.750000
vt 1.001110 -0.012435
vt 0.875000 0.750000
vn -0.0623 0.0000 -0.9981
vn 0.0000 0.0000 -1.0000
vn 0.0623 0.0000 -0.9981
vn 0.0000 0.0000 1.0000
vn 0.0000 1.0000 -0.0000
vn 0.0000 -1.0000 0.0000
usemtl fuji
s off
f 2/1/1 1/2/1 3/3/1
f 4/4/2 3/3/2 7/5/2
f 8/6/3 7/5/3 5/7/3
f 6/8/4 5/9/4 1/10/4
f 7/5/5 3/11/5 1/12/5
f 4/13/6 8/6/6 6/14/6
f 2/1/1 3/3/1 4/4/1
f 4/4/2 7/5/2 8/6/2
f 8/6/3 5/7/3 6/14/3
f 6/8/4 1/10/4 2/15/4
f 7/5/5 1/12/5 5/7/5
f 4/13/6 6/14/6 2/16/6
